<mxfile host="app.diagrams.net" modified="2021-05-14T15:35:46.570Z" agent="5.0 (Windows NT 10.0; Win64; x64) AppleWebKit/537.36 (KHTML, like Gecko) Chrome/90.0.4430.212 Safari/537.36" etag="cG_nABoadFYbb1BgE8L9" version="14.6.13" type="github">
  <diagram id="kgpKYQtTHZ0yAKxKKP6v" name="Page-1">
    <mxGraphModel dx="1422" dy="762" grid="1" gridSize="10" guides="1" tooltips="1" connect="1" arrows="1" fold="1" page="1" pageScale="1" pageWidth="1600" pageHeight="1200" math="0" shadow="0">
      <root>
        <mxCell id="0" />
        <mxCell id="1" parent="0" />
        <mxCell id="reisCUD8YAPNEKjsgwhX-3" value="Alt" style="shape=umlFrame;whiteSpace=wrap;html=1;fillColor=#FFFFFF;gradientColor=none;" parent="1" vertex="1">
          <mxGeometry x="490" y="835" width="799.67" height="350" as="geometry" />
        </mxCell>
        <mxCell id="reisCUD8YAPNEKjsgwhX-14" value="" style="endArrow=none;dashed=1;html=1;strokeWidth=3;exitX=0;exitY=0.829;exitDx=0;exitDy=0;exitPerimeter=0;" parent="1" source="reisCUD8YAPNEKjsgwhX-3" edge="1">
          <mxGeometry width="50" height="50" relative="1" as="geometry">
            <mxPoint x="480" y="1124" as="sourcePoint" />
            <mxPoint x="1300" y="1124" as="targetPoint" />
          </mxGeometry>
        </mxCell>
        <mxCell id="bImkaJb_uD8X2aJinou3-1" value="" style="shape=callout;whiteSpace=wrap;html=1;perimeter=calloutPerimeter;position2=0.38;size=20;position=0.34;base=19;rotation=-180;" parent="1" vertex="1">
          <mxGeometry x="663.81" y="1075" width="610.33" height="370" as="geometry" />
        </mxCell>
        <mxCell id="tOrZQTztv05XxvBdJtRc-54" value="" style="shape=callout;whiteSpace=wrap;html=1;perimeter=calloutPerimeter;fontSize=17;fillColor=#ffffff;rotation=-180;" parent="1" vertex="1">
          <mxGeometry x="270" y="1455" width="480" height="290" as="geometry" />
        </mxCell>
        <mxCell id="ra70TvouLn2fq20blvgT-16" value=":Authentication&#xa;Checker" style="shape=umlLifeline;perimeter=lifelinePerimeter;container=1;collapsible=0;recursiveResize=0;rounded=0;shadow=0;strokeWidth=1;" parent="1" vertex="1">
          <mxGeometry x="750" y="160" width="100" height="1280" as="geometry" />
        </mxCell>
        <mxCell id="ra70TvouLn2fq20blvgT-17" value="" style="points=[];perimeter=orthogonalPerimeter;rounded=0;shadow=0;strokeWidth=1;" parent="ra70TvouLn2fq20blvgT-16" vertex="1">
          <mxGeometry x="45" y="175" width="10" height="30" as="geometry" />
        </mxCell>
        <mxCell id="3nuBFxr9cyL0pnOWT2aG-1" value=":AddBooksView" style="shape=umlLifeline;perimeter=lifelinePerimeter;container=1;collapsible=0;recursiveResize=0;rounded=0;shadow=0;strokeWidth=1;" parent="1" vertex="1">
          <mxGeometry x="290" y="160" width="100" height="1440" as="geometry" />
        </mxCell>
        <mxCell id="3nuBFxr9cyL0pnOWT2aG-2" value="" style="points=[];perimeter=orthogonalPerimeter;rounded=0;shadow=0;strokeWidth=1;" parent="3nuBFxr9cyL0pnOWT2aG-1" vertex="1">
          <mxGeometry x="45" y="120" width="10" height="1180" as="geometry" />
        </mxCell>
        <mxCell id="tOrZQTztv05XxvBdJtRc-47" value="" style="points=[];perimeter=orthogonalPerimeter;rounded=0;shadow=0;strokeWidth=1;" parent="3nuBFxr9cyL0pnOWT2aG-1" vertex="1">
          <mxGeometry x="45" y="1325" width="10" height="260" as="geometry" />
        </mxCell>
        <mxCell id="3nuBFxr9cyL0pnOWT2aG-5" value="View Controller" style="shape=umlLifeline;perimeter=lifelinePerimeter;container=1;collapsible=0;recursiveResize=0;rounded=0;shadow=0;strokeWidth=1;" parent="1" vertex="1">
          <mxGeometry x="400" y="160" width="100" height="1440" as="geometry" />
        </mxCell>
        <mxCell id="ra70TvouLn2fq20blvgT-45" value="" style="points=[];perimeter=orthogonalPerimeter;rounded=0;shadow=0;strokeWidth=1;" parent="3nuBFxr9cyL0pnOWT2aG-5" vertex="1">
          <mxGeometry x="45" y="106" width="10" height="1184" as="geometry" />
        </mxCell>
        <mxCell id="reisCUD8YAPNEKjsgwhX-8" value="valReq == FALSE" style="text;html=1;strokeColor=none;fillColor=none;align=center;verticalAlign=middle;rounded=0;labelBackgroundColor=#ffffff;" parent="3nuBFxr9cyL0pnOWT2aG-5" vertex="1">
          <mxGeometry x="-30" y="905" width="140" height="60" as="geometry" />
        </mxCell>
        <mxCell id="3nuBFxr9cyL0pnOWT2aG-8" value="valLogin:= Authenticate" style="verticalAlign=bottom;endArrow=block;shadow=0;strokeWidth=1;" parent="1" edge="1">
          <mxGeometry x="0.2981" relative="1" as="geometry">
            <mxPoint x="345" y="340" as="sourcePoint" />
            <mxPoint x="799.5000000000002" y="340" as="targetPoint" />
            <Array as="points">
              <mxPoint x="430" y="340" />
              <mxPoint x="730" y="340" />
            </Array>
            <mxPoint as="offset" />
          </mxGeometry>
        </mxCell>
        <mxCell id="ra70TvouLn2fq20blvgT-1" value="Manager" style="shape=umlActor;verticalLabelPosition=bottom;verticalAlign=top;html=1;outlineConnect=0;" parent="1" vertex="1">
          <mxGeometry x="240" y="130" width="30" height="60" as="geometry" />
        </mxCell>
        <mxCell id="ra70TvouLn2fq20blvgT-6" value="Back Controller" style="shape=umlLifeline;perimeter=lifelinePerimeter;container=1;collapsible=0;recursiveResize=0;rounded=0;shadow=0;strokeWidth=1;" parent="1" vertex="1">
          <mxGeometry x="510" y="160" width="100" height="1440" as="geometry" />
        </mxCell>
        <mxCell id="ra70TvouLn2fq20blvgT-72" value="" style="points=[];perimeter=orthogonalPerimeter;rounded=0;shadow=0;strokeWidth=1;" parent="ra70TvouLn2fq20blvgT-6" vertex="1">
          <mxGeometry x="45" y="460" width="10" height="775" as="geometry" />
        </mxCell>
        <mxCell id="tOrZQTztv05XxvBdJtRc-37" value="" style="points=[];perimeter=orthogonalPerimeter;rounded=0;shadow=0;strokeWidth=1;" parent="ra70TvouLn2fq20blvgT-6" vertex="1">
          <mxGeometry x="45" y="1325" width="10" height="230" as="geometry" />
        </mxCell>
        <mxCell id="ra70TvouLn2fq20blvgT-8" value="Local File&#xa;Connection" style="shape=umlLifeline;perimeter=lifelinePerimeter;container=1;collapsible=0;recursiveResize=0;rounded=0;shadow=0;strokeWidth=1;" parent="1" vertex="1">
          <mxGeometry x="630" y="160" width="109.67" height="1440" as="geometry" />
        </mxCell>
        <mxCell id="ra70TvouLn2fq20blvgT-60" value="" style="points=[];perimeter=orthogonalPerimeter;rounded=0;shadow=0;strokeWidth=1;direction=south;rotation=90;" parent="ra70TvouLn2fq20blvgT-8" vertex="1">
          <mxGeometry x="31.8" y="405.78" width="46.07" height="10" as="geometry" />
        </mxCell>
        <mxCell id="tOrZQTztv05XxvBdJtRc-52" value="Variation 3" style="text;html=1;strokeColor=none;fillColor=none;align=center;verticalAlign=middle;rounded=0;labelBackgroundColor=#ffffff;fontSize=17;fontStyle=1" parent="ra70TvouLn2fq20blvgT-8" vertex="1">
          <mxGeometry x="-30.33000000000004" y="1535" width="140" height="60" as="geometry" />
        </mxCell>
        <mxCell id="bImkaJb_uD8X2aJinou3-2" value="" style="points=[];perimeter=orthogonalPerimeter;rounded=0;shadow=0;strokeWidth=1;" parent="ra70TvouLn2fq20blvgT-8" vertex="1">
          <mxGeometry x="49.83999999999992" y="935" width="10" height="350" as="geometry" />
        </mxCell>
        <mxCell id="ra70TvouLn2fq20blvgT-32" value="" style="endArrow=classic;html=1;startArrow=oval;startFill=1;" parent="1" edge="1">
          <mxGeometry width="50" height="50" relative="1" as="geometry">
            <mxPoint x="250" y="265" as="sourcePoint" />
            <mxPoint x="454.5000000000002" y="265" as="targetPoint" />
            <Array as="points">
              <mxPoint x="300" y="265" />
              <mxPoint x="320" y="265" />
            </Array>
          </mxGeometry>
        </mxCell>
        <mxCell id="ra70TvouLn2fq20blvgT-39" value="Click&lt;br&gt;Add Books&lt;br&gt;Menu" style="edgeLabel;html=1;align=center;verticalAlign=middle;resizable=0;points=[];" parent="ra70TvouLn2fq20blvgT-32" vertex="1" connectable="0">
          <mxGeometry x="-0.167" y="-1" relative="1" as="geometry">
            <mxPoint x="-43" y="19" as="offset" />
          </mxGeometry>
        </mxCell>
        <mxCell id="ra70TvouLn2fq20blvgT-40" value="" style="endArrow=classic;html=1;startArrow=oval;startFill=1;" parent="1" edge="1">
          <mxGeometry width="50" height="50" relative="1" as="geometry">
            <mxPoint x="250" y="489.5" as="sourcePoint" />
            <mxPoint x="340" y="489.5" as="targetPoint" />
            <Array as="points">
              <mxPoint x="280" y="489.5" />
              <mxPoint x="300" y="489.5" />
            </Array>
          </mxGeometry>
        </mxCell>
        <mxCell id="ra70TvouLn2fq20blvgT-41" value="Input&lt;br&gt;Information of&lt;br&gt;books (textInfo)" style="edgeLabel;html=1;align=center;verticalAlign=middle;resizable=0;points=[];" parent="ra70TvouLn2fq20blvgT-40" vertex="1" connectable="0">
          <mxGeometry x="-0.167" y="-1" relative="1" as="geometry">
            <mxPoint x="2" y="19" as="offset" />
          </mxGeometry>
        </mxCell>
        <mxCell id="ra70TvouLn2fq20blvgT-43" value="" style="endArrow=none;dashed=1;html=1;" parent="1" edge="1">
          <mxGeometry width="50" height="50" relative="1" as="geometry">
            <mxPoint x="250" y="1290" as="sourcePoint" />
            <mxPoint x="250" y="220" as="targetPoint" />
          </mxGeometry>
        </mxCell>
        <mxCell id="ra70TvouLn2fq20blvgT-56" value="" style="endArrow=classic;html=1;startArrow=oval;startFill=1;" parent="1" edge="1">
          <mxGeometry width="50" height="50" relative="1" as="geometry">
            <mxPoint x="250" y="550" as="sourcePoint" />
            <mxPoint x="689.8299999999999" y="550" as="targetPoint" />
            <Array as="points">
              <mxPoint x="280" y="550" />
              <mxPoint x="300" y="550" />
            </Array>
          </mxGeometry>
        </mxCell>
        <mxCell id="ra70TvouLn2fq20blvgT-57" value="Input&lt;br&gt;Information of&lt;br&gt;books (file)" style="edgeLabel;html=1;align=center;verticalAlign=middle;resizable=0;points=[];" parent="ra70TvouLn2fq20blvgT-56" vertex="1" connectable="0">
          <mxGeometry x="-0.167" y="-1" relative="1" as="geometry">
            <mxPoint x="-143" y="19" as="offset" />
          </mxGeometry>
        </mxCell>
        <mxCell id="ra70TvouLn2fq20blvgT-73" value="" style="endArrow=classic;html=1;edgeStyle=orthogonalEdgeStyle;" parent="1" edge="1">
          <mxGeometry width="50" height="50" relative="1" as="geometry">
            <mxPoint x="565" y="640" as="sourcePoint" />
            <mxPoint x="565" y="670.0285714285714" as="targetPoint" />
            <Array as="points">
              <mxPoint x="610" y="640" />
              <mxPoint x="610" y="670" />
            </Array>
          </mxGeometry>
        </mxCell>
        <mxCell id="ra70TvouLn2fq20blvgT-74" value="&amp;lt;&amp;lt;create&amp;gt;&amp;gt;&lt;br&gt;BookAdd&lt;br&gt;Request&amp;nbsp;&lt;br&gt;(textInfo, fileInfo)" style="edgeLabel;html=1;align=center;verticalAlign=middle;resizable=0;points=[];labelBackgroundColor=none;" parent="ra70TvouLn2fq20blvgT-73" vertex="1" connectable="0">
          <mxGeometry x="0.8858" y="-1" relative="1" as="geometry">
            <mxPoint x="68" y="-14" as="offset" />
          </mxGeometry>
        </mxCell>
        <mxCell id="ra70TvouLn2fq20blvgT-76" value="Database" style="shape=umlActor;verticalLabelPosition=bottom;verticalAlign=top;html=1;outlineConnect=0;" parent="1" vertex="1">
          <mxGeometry x="1230" y="130" width="30" height="60" as="geometry" />
        </mxCell>
        <mxCell id="ra70TvouLn2fq20blvgT-79" value="" style="endArrow=classic;html=1;" parent="1" edge="1">
          <mxGeometry width="50" height="50" relative="1" as="geometry">
            <mxPoint x="564.9966666666668" y="685" as="sourcePoint" />
            <mxPoint x="909.8299999999999" y="685" as="targetPoint" />
          </mxGeometry>
        </mxCell>
        <mxCell id="ra70TvouLn2fq20blvgT-80" value="valReq := checkAlreadyExists&lt;br&gt;(Convey BookAddRequest)" style="edgeLabel;html=1;align=center;verticalAlign=middle;resizable=0;points=[];" parent="ra70TvouLn2fq20blvgT-79" vertex="1" connectable="0">
          <mxGeometry x="0.0824" y="1" relative="1" as="geometry">
            <mxPoint x="28" y="21" as="offset" />
          </mxGeometry>
        </mxCell>
        <mxCell id="ra70TvouLn2fq20blvgT-89" value="About Req-04" style="text;html=1;strokeColor=none;fillColor=none;align=center;verticalAlign=middle;whiteSpace=wrap;rounded=0;" parent="1" vertex="1">
          <mxGeometry x="1140" y="752.5" width="90" height="20" as="geometry" />
        </mxCell>
        <mxCell id="ra70TvouLn2fq20blvgT-90" value="" style="verticalAlign=bottom;endArrow=block;shadow=0;strokeWidth=1;dashed=1;" parent="1" edge="1">
          <mxGeometry x="0.2658" relative="1" as="geometry">
            <mxPoint x="909.8299999999999" y="815" as="sourcePoint" />
            <mxPoint x="559.6666666666667" y="815" as="targetPoint" />
            <Array as="points">
              <mxPoint x="851.35" y="815" />
              <mxPoint x="731.35" y="815" />
            </Array>
            <mxPoint as="offset" />
          </mxGeometry>
        </mxCell>
        <mxCell id="ra70TvouLn2fq20blvgT-24" value="" style="verticalAlign=bottom;endArrow=block;shadow=0;strokeWidth=1;dashed=1;" parent="1" edge="1">
          <mxGeometry x="0.2658" relative="1" as="geometry">
            <mxPoint x="799.5000000000002" y="359.56999999999994" as="sourcePoint" />
            <mxPoint x="339.66666666666674" y="359.56999999999994" as="targetPoint" />
            <Array as="points">
              <mxPoint x="741.02" y="359.57" />
              <mxPoint x="621.02" y="359.57" />
            </Array>
            <mxPoint as="offset" />
          </mxGeometry>
        </mxCell>
        <mxCell id="ra70TvouLn2fq20blvgT-47" value="" style="endArrow=classic;html=1;dashed=1;" parent="1" edge="1">
          <mxGeometry width="50" height="50" relative="1" as="geometry">
            <mxPoint x="450" y="285" as="sourcePoint" />
            <mxPoint x="339.66666666666674" y="285" as="targetPoint" />
          </mxGeometry>
        </mxCell>
        <mxCell id="ra70TvouLn2fq20blvgT-48" value="render (AddBooksPage : View)" style="edgeLabel;html=1;align=center;verticalAlign=middle;resizable=0;points=[];" parent="ra70TvouLn2fq20blvgT-47" vertex="1" connectable="0">
          <mxGeometry x="-0.1494" y="1" relative="1" as="geometry">
            <mxPoint x="27" y="17" as="offset" />
          </mxGeometry>
        </mxCell>
        <mxCell id="ra70TvouLn2fq20blvgT-91" value="" style="endArrow=classic;html=1;" parent="1" target="ra70TvouLn2fq20blvgT-13" edge="1">
          <mxGeometry width="50" height="50" relative="1" as="geometry">
            <mxPoint x="559.9966666666669" y="864.58" as="sourcePoint" />
            <mxPoint x="904.8299999999999" y="864.58" as="targetPoint" />
          </mxGeometry>
        </mxCell>
        <mxCell id="ra70TvouLn2fq20blvgT-92" value="convey request (BookAddRequest)" style="edgeLabel;html=1;align=center;verticalAlign=middle;resizable=0;points=[];" parent="ra70TvouLn2fq20blvgT-91" vertex="1" connectable="0">
          <mxGeometry x="0.0824" y="1" relative="1" as="geometry">
            <mxPoint x="-12" y="11" as="offset" />
          </mxGeometry>
        </mxCell>
        <mxCell id="ra70TvouLn2fq20blvgT-93" value="" style="endArrow=classic;html=1;edgeStyle=orthogonalEdgeStyle;" parent="1" edge="1">
          <mxGeometry width="50" height="50" relative="1" as="geometry">
            <mxPoint x="1025.33" y="880" as="sourcePoint" />
            <mxPoint x="1025.33" y="910.0285714285715" as="targetPoint" />
            <Array as="points">
              <mxPoint x="1070.33" y="880" />
              <mxPoint x="1070.33" y="910" />
            </Array>
          </mxGeometry>
        </mxCell>
        <mxCell id="ra70TvouLn2fq20blvgT-94" value="&amp;lt;&amp;lt;generate&amp;gt;&lt;br&gt;BookId" style="edgeLabel;html=1;align=center;verticalAlign=middle;resizable=0;points=[];" parent="ra70TvouLn2fq20blvgT-93" vertex="1" connectable="0">
          <mxGeometry x="0.8858" y="-1" relative="1" as="geometry">
            <mxPoint x="48" y="-44" as="offset" />
          </mxGeometry>
        </mxCell>
        <mxCell id="ra70TvouLn2fq20blvgT-95" value="" style="endArrow=classic;html=1;" parent="1" edge="1">
          <mxGeometry width="50" height="50" relative="1" as="geometry">
            <mxPoint x="1025.33" y="944.58" as="sourcePoint" />
            <mxPoint x="1129.83" y="944.5799999999999" as="targetPoint" />
          </mxGeometry>
        </mxCell>
        <mxCell id="ra70TvouLn2fq20blvgT-96" value="provides data&lt;br&gt;(BAR and id)" style="edgeLabel;html=1;align=center;verticalAlign=middle;resizable=0;points=[];" parent="ra70TvouLn2fq20blvgT-95" vertex="1" connectable="0">
          <mxGeometry x="0.0824" y="1" relative="1" as="geometry">
            <mxPoint x="-6" y="14" as="offset" />
          </mxGeometry>
        </mxCell>
        <mxCell id="ra70TvouLn2fq20blvgT-97" value="" style="endArrow=classic;html=1;" parent="1" edge="1">
          <mxGeometry width="50" height="50" relative="1" as="geometry">
            <mxPoint x="1130" y="964.9999999999999" as="sourcePoint" />
            <mxPoint x="1250" y="965" as="targetPoint" />
          </mxGeometry>
        </mxCell>
        <mxCell id="ra70TvouLn2fq20blvgT-98" value="saves data&lt;br&gt;(BAR and id)" style="edgeLabel;html=1;align=center;verticalAlign=middle;resizable=0;points=[];" parent="ra70TvouLn2fq20blvgT-97" vertex="1" connectable="0">
          <mxGeometry x="0.0824" y="1" relative="1" as="geometry">
            <mxPoint x="-6" y="14" as="offset" />
          </mxGeometry>
        </mxCell>
        <mxCell id="ra70TvouLn2fq20blvgT-101" value="" style="endArrow=classic;html=1;" parent="1" edge="1">
          <mxGeometry width="50" height="50" relative="1" as="geometry">
            <mxPoint x="1245.33" y="1011" as="sourcePoint" />
            <mxPoint x="1135.3266666666664" y="1011" as="targetPoint" />
            <Array as="points">
              <mxPoint x="1195.33" y="1011" />
            </Array>
          </mxGeometry>
        </mxCell>
        <mxCell id="ra70TvouLn2fq20blvgT-102" value="return&amp;nbsp;&lt;br&gt;isSuccess&amp;nbsp;" style="edgeLabel;html=1;align=center;verticalAlign=middle;resizable=0;points=[];" parent="ra70TvouLn2fq20blvgT-101" vertex="1" connectable="0">
          <mxGeometry x="-0.3637" y="-3" relative="1" as="geometry">
            <mxPoint x="-11" y="17" as="offset" />
          </mxGeometry>
        </mxCell>
        <mxCell id="ra70TvouLn2fq20blvgT-103" value="" style="endArrow=classic;html=1;" parent="1" target="ra70TvouLn2fq20blvgT-13" edge="1">
          <mxGeometry width="50" height="50" relative="1" as="geometry">
            <mxPoint x="1125.33" y="1035" as="sourcePoint" />
            <mxPoint x="1015.3266666666664" y="1035" as="targetPoint" />
            <Array as="points">
              <mxPoint x="1075.33" y="1035" />
            </Array>
          </mxGeometry>
        </mxCell>
        <mxCell id="ra70TvouLn2fq20blvgT-104" value="return&lt;br&gt;isSuccess" style="edgeLabel;html=1;align=center;verticalAlign=middle;resizable=0;points=[];" parent="ra70TvouLn2fq20blvgT-103" vertex="1" connectable="0">
          <mxGeometry x="-0.3637" y="-3" relative="1" as="geometry">
            <mxPoint x="-13" y="23" as="offset" />
          </mxGeometry>
        </mxCell>
        <mxCell id="reisCUD8YAPNEKjsgwhX-1" value="" style="endArrow=classic;html=1;" parent="1" edge="1">
          <mxGeometry width="50" height="50" relative="1" as="geometry">
            <mxPoint x="1015.3299999999999" y="1065" as="sourcePoint" />
            <mxPoint x="559.5" y="1065" as="targetPoint" />
            <Array as="points">
              <mxPoint x="965.3299999999999" y="1065" />
            </Array>
          </mxGeometry>
        </mxCell>
        <mxCell id="reisCUD8YAPNEKjsgwhX-2" value="return&lt;br&gt;isSuccess" style="edgeLabel;html=1;align=center;verticalAlign=middle;resizable=0;points=[];" parent="reisCUD8YAPNEKjsgwhX-1" vertex="1" connectable="0">
          <mxGeometry x="-0.3637" y="-3" relative="1" as="geometry">
            <mxPoint x="90" y="-17" as="offset" />
          </mxGeometry>
        </mxCell>
        <mxCell id="reisCUD8YAPNEKjsgwhX-4" value="valReq == TRUE" style="text;html=1;strokeColor=none;fillColor=none;align=center;verticalAlign=middle;rounded=0;labelBackgroundColor=#ffffff;" parent="1" vertex="1">
          <mxGeometry x="370" y="825" width="140" height="60" as="geometry" />
        </mxCell>
        <mxCell id="reisCUD8YAPNEKjsgwhX-10" value="" style="endArrow=classic;html=1;strokeWidth=1;" parent="1" edge="1">
          <mxGeometry width="50" height="50" relative="1" as="geometry">
            <mxPoint x="560" y="1155" as="sourcePoint" />
            <mxPoint x="340" y="1155" as="targetPoint" />
          </mxGeometry>
        </mxCell>
        <mxCell id="reisCUD8YAPNEKjsgwhX-11" value="&amp;lt;&amp;lt;alert&amp;gt;&amp;gt;&lt;br&gt;try again" style="edgeLabel;html=1;align=center;verticalAlign=middle;resizable=0;points=[];" parent="reisCUD8YAPNEKjsgwhX-10" vertex="1" connectable="0">
          <mxGeometry x="0.1613" y="4" relative="1" as="geometry">
            <mxPoint x="-32" y="16" as="offset" />
          </mxGeometry>
        </mxCell>
        <mxCell id="reisCUD8YAPNEKjsgwhX-15" value="" style="endArrow=classic;html=1;strokeWidth=1;" parent="1" edge="1">
          <mxGeometry width="50" height="50" relative="1" as="geometry">
            <mxPoint x="559.8400000000001" y="1565" as="sourcePoint" />
            <mxPoint x="339.8400000000001" y="1565" as="targetPoint" />
          </mxGeometry>
        </mxCell>
        <mxCell id="reisCUD8YAPNEKjsgwhX-16" value="&amp;lt;&amp;lt;alert&amp;gt;&amp;gt;&lt;br&gt;Add Success" style="edgeLabel;html=1;align=center;verticalAlign=middle;resizable=0;points=[];" parent="reisCUD8YAPNEKjsgwhX-15" vertex="1" connectable="0">
          <mxGeometry x="0.1613" y="4" relative="1" as="geometry">
            <mxPoint x="-32" y="16" as="offset" />
          </mxGeometry>
        </mxCell>
        <mxCell id="reisCUD8YAPNEKjsgwhX-18" value="Alt" style="shape=umlFrame;whiteSpace=wrap;html=1;labelBackgroundColor=#ffffff;fillColor=#FFFFFF;gradientColor=none;" parent="1" vertex="1">
          <mxGeometry x="479.8400000000001" y="1505" width="170" height="180" as="geometry" />
        </mxCell>
        <mxCell id="reisCUD8YAPNEKjsgwhX-19" value="" style="endArrow=classic;html=1;strokeWidth=1;" parent="1" edge="1">
          <mxGeometry width="50" height="50" relative="1" as="geometry">
            <mxPoint x="559.8400000000001" y="1625" as="sourcePoint" />
            <mxPoint x="339.8400000000001" y="1625" as="targetPoint" />
          </mxGeometry>
        </mxCell>
        <mxCell id="reisCUD8YAPNEKjsgwhX-20" value="&amp;lt;&amp;lt;alert&amp;gt;&amp;gt;&lt;br&gt;Add Failed" style="edgeLabel;html=1;align=center;verticalAlign=middle;resizable=0;points=[];" parent="reisCUD8YAPNEKjsgwhX-19" vertex="1" connectable="0">
          <mxGeometry x="0.1613" y="4" relative="1" as="geometry">
            <mxPoint x="-32" y="16" as="offset" />
          </mxGeometry>
        </mxCell>
        <mxCell id="reisCUD8YAPNEKjsgwhX-21" value="" style="endArrow=none;dashed=1;html=1;strokeWidth=3;" parent="1" edge="1">
          <mxGeometry width="50" height="50" relative="1" as="geometry">
            <mxPoint x="479.8400000000001" y="1594.55" as="sourcePoint" />
            <mxPoint x="649.8400000000001" y="1595" as="targetPoint" />
          </mxGeometry>
        </mxCell>
        <mxCell id="reisCUD8YAPNEKjsgwhX-22" value="isSuccess == TRUE" style="text;html=1;strokeColor=none;fillColor=none;align=center;verticalAlign=middle;rounded=0;labelBackgroundColor=#ffffff;" parent="1" vertex="1">
          <mxGeometry x="640.1700000000001" y="1515" width="140" height="60" as="geometry" />
        </mxCell>
        <mxCell id="reisCUD8YAPNEKjsgwhX-23" value="isSuccess == FALSE" style="text;html=1;strokeColor=none;fillColor=none;align=center;verticalAlign=middle;rounded=0;labelBackgroundColor=#ffffff;" parent="1" vertex="1">
          <mxGeometry x="640.1700000000001" y="1605" width="140" height="60" as="geometry" />
        </mxCell>
        <mxCell id="ra70TvouLn2fq20blvgT-10" value="Request&#xa;Checker" style="shape=umlLifeline;perimeter=lifelinePerimeter;container=1;collapsible=0;recursiveResize=0;rounded=0;shadow=0;strokeWidth=1;" parent="1" vertex="1">
          <mxGeometry x="860.33" y="160" width="100" height="1280" as="geometry" />
        </mxCell>
        <mxCell id="ra70TvouLn2fq20blvgT-11" value="" style="points=[];perimeter=orthogonalPerimeter;rounded=0;shadow=0;strokeWidth=1;" parent="ra70TvouLn2fq20blvgT-10" vertex="1">
          <mxGeometry x="45" y="525" width="10" height="130" as="geometry" />
        </mxCell>
        <mxCell id="ra70TvouLn2fq20blvgT-12" value="Archiver" style="shape=umlLifeline;perimeter=lifelinePerimeter;container=1;collapsible=0;recursiveResize=0;rounded=0;shadow=0;strokeWidth=1;" parent="1" vertex="1">
          <mxGeometry x="970.33" y="160" width="100" height="1280" as="geometry" />
        </mxCell>
        <mxCell id="ra70TvouLn2fq20blvgT-13" value="" style="points=[];perimeter=orthogonalPerimeter;rounded=0;shadow=0;strokeWidth=1;" parent="ra70TvouLn2fq20blvgT-12" vertex="1">
          <mxGeometry x="45" y="705" width="10" height="200" as="geometry" />
        </mxCell>
        <mxCell id="ra70TvouLn2fq20blvgT-14" value="Database&#xa;Connection" style="shape=umlLifeline;perimeter=lifelinePerimeter;container=1;collapsible=0;recursiveResize=0;rounded=0;shadow=0;strokeWidth=1;" parent="1" vertex="1">
          <mxGeometry x="1080.33" y="160" width="100" height="1290" as="geometry" />
        </mxCell>
        <mxCell id="ra70TvouLn2fq20blvgT-99" value="" style="points=[];perimeter=orthogonalPerimeter;rounded=0;shadow=0;strokeWidth=1;" parent="ra70TvouLn2fq20blvgT-14" vertex="1">
          <mxGeometry x="45" y="785" width="10" height="90" as="geometry" />
        </mxCell>
        <mxCell id="ra70TvouLn2fq20blvgT-81" value="" style="endArrow=none;dashed=1;html=1;exitX=0.048;exitY=-0.014;exitDx=0;exitDy=0;exitPerimeter=0;" parent="1" source="bImkaJb_uD8X2aJinou3-1" edge="1">
          <mxGeometry width="50" height="50" relative="1" as="geometry">
            <mxPoint x="1246" y="1300" as="sourcePoint" />
            <mxPoint x="1245.5" y="210" as="targetPoint" />
          </mxGeometry>
        </mxCell>
        <mxCell id="ra70TvouLn2fq20blvgT-83" value="Black&lt;br&gt;Box" style="shape=umlFrame;whiteSpace=wrap;html=1;fillColor=#FFFFFF;swimlaneFillColor=#ffffff;" parent="1" vertex="1">
          <mxGeometry x="840" y="725" width="440" height="75" as="geometry" />
        </mxCell>
        <mxCell id="tOrZQTztv05XxvBdJtRc-41" value="" style="endArrow=classic;html=1;" parent="1" edge="1">
          <mxGeometry width="50" height="50" relative="1" as="geometry">
            <mxPoint x="560" y="1205" as="sourcePoint" />
            <mxPoint x="450" y="1205" as="targetPoint" />
            <Array as="points" />
          </mxGeometry>
        </mxCell>
        <mxCell id="tOrZQTztv05XxvBdJtRc-42" value="convey messages&lt;br&gt;&amp;nbsp;(isSuccess)" style="edgeLabel;html=1;align=center;verticalAlign=middle;resizable=0;points=[];" parent="tOrZQTztv05XxvBdJtRc-41" vertex="1" connectable="0">
          <mxGeometry x="-0.3637" y="-3" relative="1" as="geometry">
            <mxPoint x="-15" y="23" as="offset" />
          </mxGeometry>
        </mxCell>
        <mxCell id="tOrZQTztv05XxvBdJtRc-43" value="Alt" style="shape=umlFrame;whiteSpace=wrap;html=1;labelBackgroundColor=#ffffff;fillColor=#FFFFFF;gradientColor=none;" parent="1" vertex="1">
          <mxGeometry x="370" y="1250" width="170" height="200" as="geometry" />
        </mxCell>
        <mxCell id="tOrZQTztv05XxvBdJtRc-44" value="" style="endArrow=none;dashed=1;html=1;strokeWidth=3;" parent="1" edge="1">
          <mxGeometry width="50" height="50" relative="1" as="geometry">
            <mxPoint x="370" y="1354.55" as="sourcePoint" />
            <mxPoint x="540" y="1355" as="targetPoint" />
          </mxGeometry>
        </mxCell>
        <mxCell id="tOrZQTztv05XxvBdJtRc-45" value="isSuccess == TRUE" style="text;html=1;strokeColor=none;fillColor=none;align=center;verticalAlign=middle;rounded=0;labelBackgroundColor=#ffffff;" parent="1" vertex="1">
          <mxGeometry x="530.3299999999999" y="1275" width="140" height="60" as="geometry" />
        </mxCell>
        <mxCell id="tOrZQTztv05XxvBdJtRc-46" value="isSuccess == FALSE" style="text;html=1;strokeColor=none;fillColor=none;align=center;verticalAlign=middle;rounded=0;labelBackgroundColor=#ffffff;" parent="1" vertex="1">
          <mxGeometry x="530.3299999999999" y="1365" width="140" height="60" as="geometry" />
        </mxCell>
        <mxCell id="tOrZQTztv05XxvBdJtRc-48" value="" style="endArrow=classic;html=1;strokeWidth=1;" parent="1" edge="1">
          <mxGeometry width="50" height="50" relative="1" as="geometry">
            <mxPoint x="450" y="1305" as="sourcePoint" />
            <mxPoint x="340" y="1304.5" as="targetPoint" />
          </mxGeometry>
        </mxCell>
        <mxCell id="tOrZQTztv05XxvBdJtRc-49" value="&amp;lt;&amp;lt;alert&amp;gt;&amp;gt;&lt;br&gt;Add Success" style="edgeLabel;html=1;align=center;verticalAlign=middle;resizable=0;points=[];" parent="tOrZQTztv05XxvBdJtRc-48" vertex="1" connectable="0">
          <mxGeometry x="0.1613" y="4" relative="1" as="geometry">
            <mxPoint x="24" y="16" as="offset" />
          </mxGeometry>
        </mxCell>
        <mxCell id="tOrZQTztv05XxvBdJtRc-50" value="" style="endArrow=classic;html=1;strokeWidth=1;" parent="1" edge="1">
          <mxGeometry width="50" height="50" relative="1" as="geometry">
            <mxPoint x="450" y="1385" as="sourcePoint" />
            <mxPoint x="340" y="1385" as="targetPoint" />
          </mxGeometry>
        </mxCell>
        <mxCell id="tOrZQTztv05XxvBdJtRc-51" value="&amp;lt;&amp;lt;alert&amp;gt;&amp;gt;&lt;br&gt;Add Failed" style="edgeLabel;html=1;align=center;verticalAlign=middle;resizable=0;points=[];" parent="tOrZQTztv05XxvBdJtRc-50" vertex="1" connectable="0">
          <mxGeometry x="0.1613" y="4" relative="1" as="geometry">
            <mxPoint x="24" y="16" as="offset" />
          </mxGeometry>
        </mxCell>
        <mxCell id="bImkaJb_uD8X2aJinou3-3" value="" style="points=[];perimeter=orthogonalPerimeter;rounded=0;shadow=0;strokeWidth=1;" parent="1" vertex="1">
          <mxGeometry x="1014.67" y="1165" width="10" height="60" as="geometry" />
        </mxCell>
        <mxCell id="bImkaJb_uD8X2aJinou3-4" value="" style="points=[];perimeter=orthogonalPerimeter;rounded=0;shadow=0;strokeWidth=1;" parent="1" vertex="1">
          <mxGeometry x="1124.67" y="1245" width="10" height="110" as="geometry" />
        </mxCell>
        <mxCell id="bImkaJb_uD8X2aJinou3-5" value="" style="endArrow=classic;html=1;" parent="1" edge="1">
          <mxGeometry width="50" height="50" relative="1" as="geometry">
            <mxPoint x="684.335" y="1165" as="sourcePoint" />
            <mxPoint x="1017.0199999999999" y="1165" as="targetPoint" />
          </mxGeometry>
        </mxCell>
        <mxCell id="bImkaJb_uD8X2aJinou3-6" value="issueQuery := generate(BookAddRequest)&amp;nbsp;" style="edgeLabel;html=1;align=center;verticalAlign=middle;resizable=0;points=[];" parent="bImkaJb_uD8X2aJinou3-5" vertex="1" connectable="0">
          <mxGeometry x="0.0824" y="1" relative="1" as="geometry">
            <mxPoint x="-11" y="-9" as="offset" />
          </mxGeometry>
        </mxCell>
        <mxCell id="bImkaJb_uD8X2aJinou3-7" value="" style="endArrow=classic;html=1;" parent="1" edge="1">
          <mxGeometry width="50" height="50" relative="1" as="geometry">
            <mxPoint x="1247.69" y="1325" as="sourcePoint" />
            <mxPoint x="1129.67" y="1325" as="targetPoint" />
            <Array as="points">
              <mxPoint x="1197.69" y="1325" />
            </Array>
          </mxGeometry>
        </mxCell>
        <mxCell id="bImkaJb_uD8X2aJinou3-8" value="return isSuccess&amp;nbsp;" style="edgeLabel;html=1;align=center;verticalAlign=middle;resizable=0;points=[];" parent="bImkaJb_uD8X2aJinou3-7" vertex="1" connectable="0">
          <mxGeometry x="-0.3637" y="-3" relative="1" as="geometry">
            <mxPoint x="-10" y="13" as="offset" />
          </mxGeometry>
        </mxCell>
        <mxCell id="bImkaJb_uD8X2aJinou3-9" value="" style="endArrow=classic;html=1;" parent="1" edge="1">
          <mxGeometry width="50" height="50" relative="1" as="geometry">
            <mxPoint x="1129.67" y="1295" as="sourcePoint" />
            <mxPoint x="1249.67" y="1295" as="targetPoint" />
          </mxGeometry>
        </mxCell>
        <mxCell id="bImkaJb_uD8X2aJinou3-10" value="saves data" style="edgeLabel;html=1;align=center;verticalAlign=middle;resizable=0;points=[];" parent="bImkaJb_uD8X2aJinou3-9" vertex="1" connectable="0">
          <mxGeometry x="0.0824" y="1" relative="1" as="geometry">
            <mxPoint x="-5" y="-9" as="offset" />
          </mxGeometry>
        </mxCell>
        <mxCell id="bImkaJb_uD8X2aJinou3-11" value="" style="endArrow=classic;html=1;" parent="1" edge="1">
          <mxGeometry width="50" height="50" relative="1" as="geometry">
            <mxPoint x="1127.5900000000001" y="1355" as="sourcePoint" />
            <mxPoint x="684.335" y="1355" as="targetPoint" />
            <Array as="points">
              <mxPoint x="1077.5900000000001" y="1355" />
            </Array>
          </mxGeometry>
        </mxCell>
        <mxCell id="bImkaJb_uD8X2aJinou3-12" value="return isSuccess" style="edgeLabel;html=1;align=center;verticalAlign=middle;resizable=0;points=[];" parent="bImkaJb_uD8X2aJinou3-11" vertex="1" connectable="0">
          <mxGeometry x="-0.3637" y="-3" relative="1" as="geometry">
            <mxPoint x="-71" y="13" as="offset" />
          </mxGeometry>
        </mxCell>
        <mxCell id="bImkaJb_uD8X2aJinou3-13" value="Variation 2" style="text;html=1;strokeColor=none;fillColor=none;align=center;verticalAlign=middle;rounded=0;labelBackgroundColor=#ffffff;fontSize=17;fontStyle=1" parent="1" vertex="1">
          <mxGeometry x="1124.67" y="1095" width="140" height="60" as="geometry" />
        </mxCell>
        <mxCell id="bImkaJb_uD8X2aJinou3-14" value="" style="endArrow=classic;html=1;dashed=1;" parent="1" edge="1">
          <mxGeometry width="50" height="50" relative="1" as="geometry">
            <mxPoint x="1014.67" y="1225" as="sourcePoint" />
            <mxPoint x="684.335" y="1225" as="targetPoint" />
            <Array as="points">
              <mxPoint x="988.2099999999999" y="1225" />
            </Array>
          </mxGeometry>
        </mxCell>
        <mxCell id="bImkaJb_uD8X2aJinou3-15" value="return" style="edgeLabel;html=1;align=center;verticalAlign=middle;resizable=0;points=[];" parent="bImkaJb_uD8X2aJinou3-14" vertex="1" connectable="0">
          <mxGeometry x="-0.3637" y="-3" relative="1" as="geometry">
            <mxPoint x="-60" y="-7" as="offset" />
          </mxGeometry>
        </mxCell>
        <mxCell id="bImkaJb_uD8X2aJinou3-16" value="" style="endArrow=classic;html=1;" parent="1" edge="1">
          <mxGeometry width="50" height="50" relative="1" as="geometry">
            <mxPoint x="684.335" y="1255" as="sourcePoint" />
            <mxPoint x="1129.67" y="1255" as="targetPoint" />
          </mxGeometry>
        </mxCell>
        <mxCell id="bImkaJb_uD8X2aJinou3-17" value="saveResult := save(IssueQuery)" style="edgeLabel;html=1;align=center;verticalAlign=middle;resizable=0;points=[];" parent="bImkaJb_uD8X2aJinou3-16" vertex="1" connectable="0">
          <mxGeometry x="0.0824" y="1" relative="1" as="geometry">
            <mxPoint x="-5" y="11" as="offset" />
          </mxGeometry>
        </mxCell>
        <mxCell id="bImkaJb_uD8X2aJinou3-18" value="" style="endArrow=classic;html=1;edgeStyle=orthogonalEdgeStyle;" parent="1" edge="1">
          <mxGeometry width="50" height="50" relative="1" as="geometry">
            <mxPoint x="1021.67" y="1175" as="sourcePoint" />
            <mxPoint x="1021.42" y="1205" as="targetPoint" />
            <Array as="points">
              <mxPoint x="1073.92" y="1175" />
              <mxPoint x="1073.92" y="1205" />
            </Array>
          </mxGeometry>
        </mxCell>
        <mxCell id="bImkaJb_uD8X2aJinou3-19" value="&amp;lt;&amp;lt;generate&amp;gt;&lt;br&gt;BookId" style="edgeLabel;html=1;align=center;verticalAlign=middle;resizable=0;points=[];" parent="bImkaJb_uD8X2aJinou3-18" vertex="1" connectable="0">
          <mxGeometry x="0.8858" y="-1" relative="1" as="geometry">
            <mxPoint x="48" y="-44" as="offset" />
          </mxGeometry>
        </mxCell>
        <mxCell id="bImkaJb_uD8X2aJinou3-26" value="opt" style="shape=umlFrame;whiteSpace=wrap;html=1;" parent="1" vertex="1">
          <mxGeometry x="134.92" y="380" width="240.16" height="70" as="geometry" />
        </mxCell>
        <mxCell id="bImkaJb_uD8X2aJinou3-28" value="" style="verticalAlign=bottom;endArrow=none;shadow=0;strokeWidth=1;dashed=1;edgeStyle=elbowEdgeStyle;elbow=vertical;endFill=0;" parent="1" source="3nuBFxr9cyL0pnOWT2aG-1" edge="1">
          <mxGeometry x="0.2658" relative="1" as="geometry">
            <mxPoint x="620" y="410" as="sourcePoint" />
            <mxPoint x="100" y="420" as="targetPoint" />
            <Array as="points">
              <mxPoint x="210" y="430" />
            </Array>
            <mxPoint as="offset" />
          </mxGeometry>
        </mxCell>
        <mxCell id="bImkaJb_uD8X2aJinou3-29" value="" style="edgeStyle=elbowEdgeStyle;rounded=0;orthogonalLoop=1;jettySize=auto;html=1;dashed=1;" parent="1" edge="1">
          <mxGeometry relative="1" as="geometry">
            <mxPoint x="100" y="430" as="sourcePoint" />
            <mxPoint x="250" y="240" as="targetPoint" />
            <Array as="points">
              <mxPoint x="100" y="370" />
            </Array>
          </mxGeometry>
        </mxCell>
        <mxCell id="bImkaJb_uD8X2aJinou3-30" value="&amp;lt;&amp;lt;prompt&amp;gt;&amp;gt;&lt;br&gt;try again" style="text;html=1;strokeColor=none;fillColor=none;align=center;verticalAlign=middle;whiteSpace=wrap;rounded=0;" parent="1" vertex="1">
          <mxGeometry x="110" y="280" width="60" height="40" as="geometry" />
        </mxCell>
        <mxCell id="bImkaJb_uD8X2aJinou3-31" value="valLogin == FALSE" style="edgeLabel;html=1;align=center;verticalAlign=middle;resizable=0;points=[];" parent="1" vertex="1" connectable="0">
          <mxGeometry x="260.00333333333344" y="404.9999999999999" as="geometry" />
        </mxCell>
        <mxCell id="EvAbvaOUnCIyATZJITxc-1" value="" style="shape=callout;whiteSpace=wrap;html=1;perimeter=calloutPerimeter;position2=0.6;size=30;position=0.52;base=20;rotation=-180;direction=north;" parent="1" vertex="1">
          <mxGeometry x="700.66" y="414" width="599.67" height="247" as="geometry" />
        </mxCell>
        <mxCell id="EvAbvaOUnCIyATZJITxc-2" value="" style="endArrow=classic;html=1;startArrow=none;startFill=0;strokeWidth=1;" parent="1" edge="1">
          <mxGeometry width="50" height="50" relative="1" as="geometry">
            <mxPoint x="870.2566666666668" y="594.9999999999998" as="sourcePoint" />
            <mxPoint x="1090.0900000000001" y="594.9999999999998" as="targetPoint" />
            <Array as="points">
              <mxPoint x="901.09" y="595" />
              <mxPoint x="921.09" y="595" />
            </Array>
          </mxGeometry>
        </mxCell>
        <mxCell id="EvAbvaOUnCIyATZJITxc-3" value="GET(textInfo)" style="edgeLabel;html=1;align=center;verticalAlign=middle;resizable=0;points=[];labelBorderColor=none;labelBackgroundColor=#ffffff;" parent="EvAbvaOUnCIyATZJITxc-2" vertex="1" connectable="0">
          <mxGeometry x="-0.167" y="-1" relative="1" as="geometry">
            <mxPoint x="-32" y="12" as="offset" />
          </mxGeometry>
        </mxCell>
        <mxCell id="EvAbvaOUnCIyATZJITxc-7" value="" style="endArrow=classic;html=1;" parent="1" edge="1">
          <mxGeometry width="50" height="50" relative="1" as="geometry">
            <mxPoint x="1090.1685714285713" y="630" as="sourcePoint" />
            <mxPoint x="1210" y="630" as="targetPoint" />
          </mxGeometry>
        </mxCell>
        <mxCell id="EvAbvaOUnCIyATZJITxc-8" value="fileInfo := &lt;br&gt;getfile(fileInfo)" style="edgeLabel;html=1;align=center;verticalAlign=middle;resizable=0;points=[];" parent="EvAbvaOUnCIyATZJITxc-7" vertex="1" connectable="0">
          <mxGeometry x="0.8501" y="-1" relative="1" as="geometry">
            <mxPoint x="-52" y="-21" as="offset" />
          </mxGeometry>
        </mxCell>
        <mxCell id="EvAbvaOUnCIyATZJITxc-9" value=":AddBooksView" style="shape=umlLifeline;perimeter=lifelinePerimeter;container=1;collapsible=0;recursiveResize=0;rounded=0;shadow=0;strokeWidth=1;" parent="1" vertex="1">
          <mxGeometry x="820" y="414" width="100" height="247" as="geometry" />
        </mxCell>
        <mxCell id="EvAbvaOUnCIyATZJITxc-10" value="" style="points=[];perimeter=orthogonalPerimeter;rounded=0;shadow=0;strokeWidth=1;" parent="EvAbvaOUnCIyATZJITxc-9" vertex="1">
          <mxGeometry x="45" y="40" width="10" height="207" as="geometry" />
        </mxCell>
        <mxCell id="EvAbvaOUnCIyATZJITxc-5" value="" style="endArrow=classic;html=1;startArrow=oval;startFill=1;" parent="1" edge="1">
          <mxGeometry width="50" height="50" relative="1" as="geometry">
            <mxPoint x="780.17" y="550" as="sourcePoint" />
            <mxPoint x="1210" y="550" as="targetPoint" />
            <Array as="points">
              <mxPoint x="810.17" y="550" />
              <mxPoint x="830.17" y="550" />
            </Array>
          </mxGeometry>
        </mxCell>
        <mxCell id="EvAbvaOUnCIyATZJITxc-6" value="Input&lt;br&gt;Information of&lt;br&gt;books (file)" style="edgeLabel;html=1;align=center;verticalAlign=middle;resizable=0;points=[];" parent="EvAbvaOUnCIyATZJITxc-5" vertex="1" connectable="0">
          <mxGeometry x="-0.167" y="-1" relative="1" as="geometry">
            <mxPoint x="-143" y="19" as="offset" />
          </mxGeometry>
        </mxCell>
        <mxCell id="EvAbvaOUnCIyATZJITxc-16" value=":Back&#xa;controller" style="shape=umlLifeline;perimeter=lifelinePerimeter;container=1;collapsible=0;recursiveResize=0;rounded=0;shadow=0;strokeWidth=1;" parent="1" vertex="1">
          <mxGeometry x="1040" y="414" width="100" height="247" as="geometry" />
        </mxCell>
        <mxCell id="EvAbvaOUnCIyATZJITxc-17" value="" style="points=[];perimeter=orthogonalPerimeter;rounded=0;shadow=0;strokeWidth=1;" parent="EvAbvaOUnCIyATZJITxc-16" vertex="1">
          <mxGeometry x="45" y="180" width="10" height="67" as="geometry" />
        </mxCell>
        <mxCell id="EvAbvaOUnCIyATZJITxc-18" value=":Local File&#xa;connection" style="shape=umlLifeline;perimeter=lifelinePerimeter;container=1;collapsible=0;recursiveResize=0;rounded=0;shadow=0;strokeWidth=1;" parent="1" vertex="1">
          <mxGeometry x="1164.67" y="414" width="100" height="247" as="geometry" />
        </mxCell>
        <mxCell id="EvAbvaOUnCIyATZJITxc-4" value="" style="points=[];perimeter=orthogonalPerimeter;rounded=0;shadow=0;strokeWidth=1;direction=south;rotation=90;" parent="1" vertex="1">
          <mxGeometry x="1171.95" y="585.8" width="86.12" height="10" as="geometry" />
        </mxCell>
        <mxCell id="EvAbvaOUnCIyATZJITxc-20" value="Variation 1" style="text;html=1;strokeColor=none;fillColor=none;align=center;verticalAlign=middle;rounded=0;labelBackgroundColor=#ffffff;fontSize=17;fontStyle=1" parent="1" vertex="1">
          <mxGeometry x="910.0000000000001" y="460" width="140" height="60" as="geometry" />
        </mxCell>
        <mxCell id="ra70TvouLn2fq20blvgT-70" value="" style="endArrow=classic;html=1;startArrow=none;startFill=0;strokeWidth=1;" parent="1" edge="1">
          <mxGeometry width="50" height="50" relative="1" as="geometry">
            <mxPoint x="454.5" y="620" as="sourcePoint" />
            <mxPoint x="555" y="620" as="targetPoint" />
            <Array as="points">
              <mxPoint x="495" y="620" />
              <mxPoint x="545" y="620" />
            </Array>
          </mxGeometry>
        </mxCell>
        <mxCell id="ra70TvouLn2fq20blvgT-71" value="POST(textInfo, fileInfo)" style="edgeLabel;html=1;align=center;verticalAlign=middle;resizable=0;points=[];labelBorderColor=none;labelBackgroundColor=#ffffff;" parent="ra70TvouLn2fq20blvgT-70" vertex="1" connectable="0">
          <mxGeometry x="-0.167" y="-1" relative="1" as="geometry">
            <mxPoint x="8" y="12" as="offset" />
          </mxGeometry>
        </mxCell>
        <mxCell id="EvAbvaOUnCIyATZJITxc-22" value="" style="endArrow=classic;html=1;" parent="1" target="3nuBFxr9cyL0pnOWT2aG-5" edge="1">
          <mxGeometry width="50" height="50" relative="1" as="geometry">
            <mxPoint x="339.9985714285714" y="520" as="sourcePoint" />
            <mxPoint x="440" y="520" as="targetPoint" />
          </mxGeometry>
        </mxCell>
        <mxCell id="EvAbvaOUnCIyATZJITxc-23" value="setInfo(textInfo)" style="edgeLabel;html=1;align=center;verticalAlign=middle;resizable=0;points=[];" parent="EvAbvaOUnCIyATZJITxc-22" vertex="1" connectable="0">
          <mxGeometry x="0.8501" y="-1" relative="1" as="geometry">
            <mxPoint x="-51" y="-11" as="offset" />
          </mxGeometry>
        </mxCell>
        <mxCell id="EvAbvaOUnCIyATZJITxc-26" value="" style="endArrow=classic;html=1;" parent="1" target="3nuBFxr9cyL0pnOWT2aG-5" edge="1">
          <mxGeometry width="50" height="50" relative="1" as="geometry">
            <mxPoint x="679.8399999999999" y="590.3" as="sourcePoint" />
            <mxPoint x="579.8399999999999" y="590.3" as="targetPoint" />
            <Array as="points">
              <mxPoint x="629.8399999999999" y="590.3" />
            </Array>
          </mxGeometry>
        </mxCell>
        <mxCell id="EvAbvaOUnCIyATZJITxc-27" value="setInfo (fileInfo)" style="edgeLabel;html=1;align=center;verticalAlign=middle;resizable=0;points=[];" parent="EvAbvaOUnCIyATZJITxc-26" vertex="1" connectable="0">
          <mxGeometry x="-0.3637" y="-3" relative="1" as="geometry">
            <mxPoint x="3" y="-12" as="offset" />
          </mxGeometry>
        </mxCell>
      </root>
    </mxGraphModel>
  </diagram>
</mxfile>
